{
	"animations":[{
		"samplers":[{
			"input":0,
			"interpolation":"LINEAR",
			"output":1
		},
		{
			"input":6,
			"interpolation":"LINEAR",
			"output":7
		}],
		"channels":[{
			"sampler":0,
			"target":{
				"node":0,
				"path":"rotation"
			}
		},
		{
			"sampler":1,
			"target":{
				"node":1,
				"path":"rotation"
			}
		}]
	}],
	"asset":{
		"version":"2.0",
		"generator":"Created using the official Cinema 4D glTF Exporter 1.000x284978"
	},
	"scenes":[{
		"nodes":[0]
	}],
	"buffers":[{
		"uri":"data:application/octet-stream;base64,",
		"byteLength":2020
	},
	{
		"uri":"data:application/octet-stream;base64,",
		"byteLength":254952
	},
	{
		"uri":"data:application/octet-stream;base64,",
		"byteLength":2020
	}],
	"nodes":[{
		"name":"Extrudieren",
		"translation":[0.0,
		0.0,
		0.0],
		"rotation":[0.0,
		-0.5340574979782105,
		0.0,
		-0.8454481959342957],
		"scale":[1.0,
		1.0,
		1.0],
		"children":[1]
	},
	{
		"name":"Extrudieren",
		"mesh":0
	}],
	"meshes":[{
		"name":"Extrudieren",
		"primitives":[{
			"attributes":{
				"POSITION":3,
				"NORMAL":4,
				"TEXCOORD_0":5
			},
			"indices":2,
			"material":0
		}]
	}],
	"accessors":[{
		"bufferView":0,
		"type":"SCALAR",
		"componentType":5126,
		"count":101,
		"byteOffset":0,
		"min":[0.0],
		"max":[4.0]
	},
	{
		"bufferView":0,
		"type":"VEC4",
		"componentType":5126,
		"count":101,
		"byteOffset":404,
		"min":[0.0,
		-1.0,
		0.0,
		-1.0],
		"max":[0.0,
		0.0,
		0.0,
		1.0]
	},
	{
		"bufferView":1,
		"type":"SCALAR",
		"componentType":5123,
		"count":19476,
		"byteOffset":0,
		"min":[0],
		"max":[6749]
	},
	{
		"bufferView":2,
		"type":"VEC3",
		"componentType":5126,
		"count":6750,
		"byteOffset":0,
		"min":[-292.333984375,
		-223.92578125,
		0.0],
		"max":[292.333984375,
		143.45703125,
		16.0]
	},
	{
		"bufferView":2,
		"type":"VEC3",
		"componentType":5126,
		"count":6750,
		"byteOffset":12,
		"min":[-1.0,
		-1.0,
		-1.0],
		"max":[1.0,
		1.0,
		1.0]
	},
	{
		"bufferView":2,
		"type":"VEC2",
		"componentType":5126,
		"count":6750,
		"byteOffset":24,
		"min":[0.0,
		0.0],
		"max":[1.0,
		1.0]
	},
	{
		"bufferView":3,
		"type":"SCALAR",
		"componentType":5126,
		"count":101,
		"byteOffset":0,
		"min":[0.0],
		"max":[4.0]
	},
	{
		"bufferView":3,
		"type":"VEC4",
		"componentType":5126,
		"count":101,
		"byteOffset":404,
		"min":[0.0,
		-1.0,
		0.0,
		-1.0],
		"max":[0.0,
		0.0,
		0.0,
		1.0]
	}],
	"bufferViews":[{
		"buffer":0,
		"byteOffset":0,
		"byteLength":2020
	},
	{
		"buffer":1,
		"byteOffset":0,
		"byteLength":38952,
		"target":34963
	},
	{
		"buffer":1,
		"byteOffset":38952,
		"byteLength":216000,
		"target":34962,
		"byteStride":32
	},
	{
		"buffer":2,
		"byteOffset":0,
		"byteLength":2020
	}],
	"materials":[{
		"pbrMetallicRoughness":{
			"baseColorFactor":[0.8,
			0.23200000000000005,
			0.23200000000000005,
			1.0],
			"metallicFactor":1.0,
			"roughnessFactor":1.0
		},
		"emissiveFactor":[0.0,
		0.0,
		0.0],
		"alphaMode":"OPAQUE",
		"doubleSided":false,
		"name":"Mat"
	}]
}